<svg width="100" height="100" viewBox="0 0 100 100" fill="none" xmlns="http://www.w3.org/2000/svg">
<path d="M46.2789 1.50351L2.31316 44.1506C0.831579 45.5877 0 47.5354 0 49.5673V94.8947C0 97.7154 2.35526 100 5.26316 100H94.7368C97.6447 100 100 97.7154 100 94.8947V49.5673C100 47.5354 99.1684 45.5877 97.6868 44.1532L53.7211 1.50351C51.6658 -0.490104 48.3342 -0.490104 46.2789 1.50351Z" fill="#FAFAFA"/>
<path d="M18.421 79.5788H81.5789V100H18.421V79.5788Z" fill="#43A047"/>
<path d="M21.0526 51.4997V100H5.26316C2.36842 100 0 97.7026 0 94.8947V51.4997H21.0526Z" fill="#FBC02D"/>
<path d="M97.6842 44.1481L64.7105 12.1634L50.1053 26.3306L78.9474 54.3076V100H94.7369C97.6316 100 100 97.7026 100 94.8947V49.5597C100 47.5431 99.1579 45.5776 97.6842 44.1481Z" fill="#1E88E5"/>
<path d="M64.7105 12.1634L0 74.933V49.5597C0 47.5431 0.842105 45.5775 2.31579 44.148L46.2895 1.4933C48.3421 -0.497766 51.6579 -0.497766 53.7105 1.4933L64.7105 12.1634Z" fill="#E64A19"/>
</svg>
